<svg xmlns="http://www.w3.org/2000/svg" viewBox="0 0 214.8 112.49"><defs><style>.cls-1{fill:red;}</style></defs><title>Asset 1</title><g id="Layer_2" data-name="Layer 2"><g id="Layer_1-2" data-name="Layer 1"><polygon class="cls-1" points="82.83 9.5 84.53 2.6 78.94 0 68.03 0 62.13 2.6 60.43 9.5 64.43 11.5 48.3 46.7 46.4 14 39.6 14 24.5 45.9 23.8 11.8 28.5 9.5 30.2 2.6 24.7 0 7.7 0 1.7 2.6 0 9.5 3.9 11.5 5.7 75.7 19.4 75.7 33.4 48.6 34.5 75.7 46.5 75.7 78.14 11.9 82.83 9.5"/><path class="cls-1" d="M156.1,59.2,169.5,5.5,166.3,0H154l-6.7,2.6-.44,1.8L144.3,0H132l-6.7,2.6-1.9,7.8,4.4,2.4-12,48.3a17.79,17.79,0,0,0-.58,4.83,9.65,9.65,0,0,1-2.62-1.46c-1.24-1.36-1.11-3.78.2-9l3.4-14c4.3-17.9-2.5-23.7-19.7-23.7-14.5,0-23,4.5-27.3,21.8l-1.8,7.3c-4.7,18.9,1.2,27,11.8,27,7.1,0,11-3.22,14-7.43.36,3.82,2.78,6.12,8,6.33,6.8.3,13,1.2,14.8,2.9l1.19-4.89c1.31,1.19,3.3,1.88,6.08,2,6.8.3,13,1.2,14.8,2.9l1.18-4.84c1.31,1.16,3.28,1.83,6,1.94,6.8.3,13,1.2,14.8,2.9l1.9-7.8C159.4,64.5,154.3,66.5,156.1,59.2ZM99.6,36.5l-3.8,15c-1.7,6.7-5.1,10-8.7,10-3.1,0-4-2.5-2.7-7.9l4-16.1c1.4-5.5,2.3-7.9,7.1-7.9C100,29.6,100.7,32.2,99.6,36.5Zm38.2,24.6a17.59,17.59,0,0,0-.58,4.8c-2.27-1-4.38-1.6-3.12-6.7l12.07-48.38,3.63,2Z"/><path class="cls-1" d="M197.4,40.7c-6.9-2.1-7.8-3.4-6.9-6.8.7-2.8,2.3-3.6,5.9-3.6,4.2,0,5.2.8,5.2,1.8,0,.6-1,1.6-1,3.5,0,3.2,3.2,4.8,6.5,4.8,5.1,0,7.7-4,7.7-8.1,0-6.5-4.5-11.7-17.7-11.7a43.16,43.16,0,0,0-7.9.64,16.84,16.84,0,0,0,2-7.64c0-6.4-3.2-10.8-10.1-10.8-5.3,0-9.9,3.8-9.9,9.2,0,6.6,4.8,6.6,4.8,10.2,0,2.7-2.3,5-7.6,7.8-3.4,1.8-2,5.6,1.2,5A29,29,0,0,0,176,33.1c-.14.46-.27.92-.39,1.4-3.4,13.9,2.6,18.6,13.8,21.8,5.8,1.7,7.2,2.6,6.5,5.5-.6,2.6-1.7,3.4-7.6,3.4-6.6,0-9.2-3.4-10.6-7.8h-6.3L167,75.3h5.8c1.1-2.4,1.8-2.8,2.9-2.8,1.6,0,3.5,3.2,13.4,3.2,12.8,0,20-3,22.6-13.9C214.9,48.4,209.1,44.2,197.4,40.7Z"/><path class="cls-1" d="M63.77,103v6.79l1.27.57v.9l-1.53.94H60.17l-1.75-.82v-1l1.24-.73V95l-1.24-.88V92.94l1.5-.85h3.39l1.31.79v1.24l-.85.66v5.88H70.1V95.12l-1-.66V92.79l1.5-.7H73.7l1.38.76v1.36L74,95.06v14.46l1.28.85v1.07l-1.53.77H70.61l-1.5-.71v-1.08l1-.73V103Z"/><path class="cls-1" d="M87.94,112.49c-5.43,0-7.1-4-7.1-6.54V98.06c0-3.68,3.22-6.26,7.13-6.26,5.35,0,7.64,2.81,7.64,6.91v6.34C95.61,109.43,92.81,112.49,87.94,112.49Zm3.56-6.14V97.86c0-2.35-.76-3.45-3.22-3.45s-3.62,1-3.62,3.28v8.91c0,2.41,1.16,3.31,3.48,3.31C90.23,109.91,91.5,108.58,91.5,106.35Z"/><path class="cls-1" d="M106.59,94c-.8,0-1.08.2-1.16,1.08l-.32,3.67h-2.65V94.58c0-1.59.5-2.49,2.23-2.49h12.14c1.5,0,1.81.51,1.81,2v4.47h-2.07L116,95.12c-.17-.83-.37-1.08-1.13-1.08h-2.18v15.73l1.73.85v.79l-1.19.8h-4.41l-1.5-.68v-1l1.55-.74V94Z"/><path class="cls-1" d="M132.72,100.52l.53-2h1.36l.54,2.57v1.5l-.76,2.38h-1l-.57-2h-3.48v7.33h6.23l1.13-3.4h1.7v4.19l-1,1.08H125.42l-1.19-.68v-1l1.24-.54V95.17l-1.24-.88V92.94l1.41-.85h12.2v4.84h-1.36l-.85-2.72h-6.34v6.31Z"/><path class="cls-1" d="M149.82,92.85v1.36L148.4,95v15h4.7l2-4.24h1.25v5.43l-.88,1H144.58l-1.33-.68v-1l1.39-.76V95.17l-1.25-.88V92.94l1.76-.85h2.68Z"/><path class="cls-1" d="M167.64,102.7v-1l.77-.74h17.41l.72.66v.88l-.86.88h-17.1Z"/><path class="cls-1" d="M28.26,102.7v-1l.77-.74H46.44l.71.66v.88l-.85.88H29.2Z"/></g></g></svg>